<?xml version="1.0"?>
<svg xmlns="http://www.w3.org/2000/svg" viewBox="0 0 64 64">
    <path d="M 39 2 C 37.346 2 36 3.346 36 5 L 36 6.1835938 C 35.686 6.0715937 35.352 6 35 6 L 27 6 C 25.346 6 24 7.346 24 9 L 24 12.65625 C 23.782 12.53125 23.552828 12.423469 23.298828 12.355469 L 17.501953 10.802734 C 16.730953 10.595734 15.921562 10.698563 15.226562 11.101562 C 14.533563 11.501563 14.036125 12.149828 13.828125 12.923828 L 6.5800781 39.970703 C 6.1510781 41.568703 7.1031719 43.215531 8.7011719 43.644531 L 10.029297 44 L 3 44 C 1.346 44 0 45.346 0 47 L 0 53 C 0 54.654 1.346 56 3 56 L 8 56 L 8 61 C 8 62.654 9.346 64 11 64 C 12.654 64 14 62.654 14 61 L 14 56 L 50 56 L 50 61 C 50 62.654 51.346 64 53 64 C 54.654 64 56 62.654 56 61 L 56 56 L 61 56 C 62.654 56 64 54.654 64 53 L 64 47 C 64 45.346 62.654 44 61 44 L 58 44 L 58 15 C 58 13.346 56.654 12 55 12 L 51 12 C 50.648 12 50.314 12.071594 50 12.183594 L 50 5 C 50 3.346 48.654 2 47 2 L 39 2 z M 39 4 L 47 4 C 47.552 4 48 4.448 48 5 L 48 15 L 48 44 L 38 44 L 38 9 L 38 5 C 38 4.448 38.448 4 39 4 z M 27 8 L 35 8 C 35.552 8 36 8.448 36 9 L 36 44 L 26 44 L 26 9 C 26 8.448 26.448 8 27 8 z M 41 8 C 40.447 8 40 8.447 40 9 C 40 9.553 40.447 10 41 10 L 45 10 C 45.553 10 46 9.553 46 9 C 46 8.447 45.553 8 45 8 L 41 8 z M 29 12 C 28.447 12 28 12.447 28 13 C 28 13.553 28.447 14 29 14 L 33 14 C 33.553 14 34 13.553 34 13 C 34 12.447 33.553 12 33 12 L 29 12 z M 16.724609 12.699219 C 16.811609 12.699219 16.898375 12.711375 16.984375 12.734375 L 22.78125 14.287109 C 23.31325 14.430109 23.631281 14.979672 23.488281 15.513672 L 16.240234 42.558594 C 16.171234 42.816594 16.005438 43.033016 15.773438 43.166016 C 15.541438 43.300016 15.271625 43.334625 15.015625 43.265625 L 9.2207031 41.712891 C 8.6887031 41.569891 8.3706719 41.020328 8.5136719 40.486328 L 15.759766 13.441406 C 15.828766 13.183406 15.994562 12.966984 16.226562 12.833984 C 16.380562 12.744984 16.551609 12.699219 16.724609 12.699219 z M 51 14 L 55 14 C 55.552 14 56 14.448 56 15 L 56 44 L 50 44 L 50 42 L 54 42 C 54.553 42 55 41.553 55 41 C 55 40.447 54.553 40 54 40 L 50 40 L 50 20 L 54 20 C 54.553 20 55 19.553 55 19 C 55 18.447 54.553 18 54 18 L 50 18 L 50 15 C 50 14.448 50.448 14 51 14 z M 17.037109 14.900391 C 16.651141 14.954344 16.314281 15.233062 16.207031 15.632812 C 16.064031 16.165813 16.381063 16.715422 16.914062 16.857422 L 20.779297 17.892578 C 20.866297 17.915578 20.953062 17.925781 21.039062 17.925781 C 21.480062 17.925781 21.884906 17.631547 22.003906 17.185547 C 22.146906 16.652547 21.829875 16.103938 21.296875 15.960938 L 17.433594 14.925781 C 17.300344 14.890281 17.165766 14.882406 17.037109 14.900391 z M 24 21.326172 L 24 44 L 17.734375 44 C 17.927375 43.721 18.080875 43.414172 18.171875 43.076172 L 24 21.326172 z M 10.826172 38.082031 C 10.440344 38.135703 10.103344 38.414703 9.9960938 38.814453 C 9.8530938 39.347453 10.170125 39.896063 10.703125 40.039062 L 14.566406 41.074219 C 14.653406 41.097219 14.740172 41.107422 14.826172 41.107422 C 15.268172 41.107422 15.673969 40.813187 15.792969 40.367188 C 15.935969 39.834187 15.618938 39.285578 15.085938 39.142578 L 11.220703 38.107422 C 11.087703 38.071422 10.954781 38.064141 10.826172 38.082031 z M 29 40 C 28.447 40 28 40.447 28 41 C 28 41.553 28.447 42 29 42 L 33 42 C 33.553 42 34 41.553 34 41 C 34 40.447 33.553 40 33 40 L 29 40 z M 41 40 C 40.447 40 40 40.447 40 41 C 40 41.553 40.447 42 41 42 L 45 42 C 45.553 42 46 41.553 46 41 C 46 40.447 45.553 40 45 40 L 41 40 z M 3 46 L 25 46 L 37 46 L 49 46 L 57 46 L 61 46 C 61.552 46 62 46.448 62 47 L 62 53 C 62 53.552 61.552 54 61 54 L 56 54 L 50 54 L 14 54 L 8 54 L 3 54 C 2.448 54 2 53.552 2 53 L 2 47 C 2 46.448 2.448 46 3 46 z M 7 48 C 6.4 48 6 48.447 6 49 L 6 51 C 6 51.553 6.4 52 7 52 C 7.6 52 8 51.553 8 51 L 8 49 C 8 48.447 7.6 48 7 48 z M 12 48 C 11.4 48 11 48.447 11 49 L 11 51 C 11 51.553 11.4 52 12 52 C 12.6 52 13 51.553 13 51 L 13 49 C 13 48.447 12.6 48 12 48 z M 17 48 C 16.4 48 16 48.447 16 49 L 16 51 C 16 51.553 16.4 52 17 52 C 17.6 52 18 51.553 18 51 L 18 49 C 18 48.447 17.6 48 17 48 z M 22 48 C 21.4 48 21 48.447 21 49 L 21 51 C 21 51.553 21.4 52 22 52 C 22.6 52 23 51.553 23 51 L 23 49 C 23 48.447 22.6 48 22 48 z M 27 48 C 26.4 48 26 48.447 26 49 L 26 51 C 26 51.553 26.4 52 27 52 C 27.6 52 28 51.553 28 51 L 28 49 C 28 48.447 27.6 48 27 48 z M 32 48 C 31.4 48 31 48.447 31 49 L 31 51 C 31 51.553 31.4 52 32 52 C 32.6 52 33 51.553 33 51 L 33 49 C 33 48.447 32.6 48 32 48 z M 37 48 C 36.4 48 36 48.447 36 49 L 36 51 C 36 51.553 36.4 52 37 52 C 37.6 52 38 51.553 38 51 L 38 49 C 38 48.447 37.6 48 37 48 z M 42 48 C 41.4 48 41 48.447 41 49 L 41 51 C 41 51.553 41.4 52 42 52 C 42.6 52 43 51.553 43 51 L 43 49 C 43 48.447 42.6 48 42 48 z M 47 48 C 46.4 48 46 48.447 46 49 L 46 51 C 46 51.553 46.4 52 47 52 C 47.6 52 48 51.553 48 51 L 48 49 C 48 48.447 47.6 48 47 48 z M 52 48 C 51.4 48 51 48.447 51 49 L 51 51 C 51 51.553 51.4 52 52 52 C 52.6 52 53 51.553 53 51 L 53 49 C 53 48.447 52.6 48 52 48 z M 57 48 C 56.4 48 56 48.447 56 49 L 56 51 C 56 51.553 56.4 52 57 52 C 57.6 52 58 51.553 58 51 L 58 49 C 58 48.447 57.6 48 57 48 z M 10 56 L 12 56 L 12 61 C 12 61.552 11.552 62 11 62 C 10.448 62 10 61.552 10 61 L 10 56 z M 52 56 L 54 56 L 54 61 C 54 61.552 53.552 62 53 62 C 52.448 62 52 61.552 52 61 L 52 56 z"/>
</svg>
